<svg height="512" viewBox="0 0 56 56" width="512" xmlns="http://www.w3.org/2000/svg"><g id="048---4-Way-Arrow"><path id="Rectangle-path" d="m16.3 1.946h5.849v3.657h-5.849z" transform="matrix(.707 -.707 .707 .707 2.962 14.7)"/><path id="Shape" d="m1.414 54 2 2h18.172l-2-2z"/><path id="Rectangle-path" d="m15.058 41.847h14.334v3.657h-14.334z" transform="matrix(.707 -.707 .707 .707 -24.374 28.508)"/><path id="Shape" d="m54 52.586 2 2v-18.172l-2-2z"/><path id="Rectangle-path" d="m36.508 20.397h14.334v3.657h-14.334z" transform="matrix(.707 -.707 .707 .707 -2.924 37.393)"/><path id="Rectangle-path" d="m.85 17.397h5.849v3.657h-5.849z" transform="matrix(.707 -.707 .707 .707 -12.489 8.3)"/><path id="Shape" d="m13.743 48.157c-.3903819-.3904999-.3903819-1.0235001 0-1.414l10.843-10.843c.7809997-.7807639 2.0470003-.7807639 2.828 0l10.843 10.843c.3903819.3904999.3903819 1.0235001 0 1.414l-3.843 3.843h17.586v-17.586l-3.843 3.843c-.3904999.3903819-1.0235001.3903819-1.414 0l-10.843-10.843c-.7807639-.7809997-.7807639-2.0470003 0-2.828l10.843-10.843c.3904999-.3903819 1.0235001-.3903819 1.414 0l3.843 3.843v-17.586h-17.586l3.843 3.843c.3903819.39049985.3903819 1.02350015 0 1.414l-10.843 10.843c-.7809997.7807639-2.0470003.7807639-2.828 0l-10.843-10.843c-.3903819-.39049985-.3903819-1.02350015 0-1.414l3.843-3.843h-17.586v17.586l3.843-3.843c.39049985-.3903819 1.02350015-.3903819 1.414 0l10.843 10.843c.7807639.7809997.7807639 2.0470003 0 2.828l-10.843 10.843c-.39049985.3903819-1.02350015.3903819-1.414 0l-3.843-3.843v17.586h17.586z"/><path id="Shape" d="m34.414 54 2 2h18.172l-2-2z"/><path id="Shape" d="m54 19.586 2 2v-18.172l-2-2z"/></g></svg>