<svg height="512" viewBox="0 0 62 61" width="512" xmlns="http://www.w3.org/2000/svg"><path id="Shape" d="m56.708 1.294c-.188434-.18687311-.4426202-.29242496-.708-.294h-21c-.4043959.00008635-.7689341.2437275-.923678.61734544s-.0692299.80366031.216678 1.08965456l4.843 4.843-10.136 10.136-6.136-6.136 4.843-4.843c.3903819-.39049985.3903819-1.02350015 0-1.414-5.064-5.064-3.827-3.836-4.05-4.034-.426-.377.898-.259-21.657-.259-.55228475 0-1 .44771525-1 1 0 22.73-.115 21.234.259 21.657.192.217-.925-.909 4.034 4.05.39049985.3903819 1.02350015.3903819 1.414 0l4.843-4.843 6.136 6.136-10.136 10.136-4.843-4.843c-.28599425-.2859079-.71603662-.3714219-1.08965456-.216678s-.61725909.5192821-.61734544.923678v21c.00005664.2651948.10545063.5195073.293.707l4 4c.18749273.1875494.44180519.2929434.707.293h21c.4043959-.0000863.7689341-.2437275.923678-.6173454.1547439-.373618.0692299-.8036603-.216678-1.0896546l-4.843-4.843 10.136-10.136 6.136 6.136-4.843 4.843c-.3903819.3904999-.3903819 1.0235001 0 1.414l4 4c.1874927.1875494.4418052.2929434.707.293h21c.4043083-.0004701.7685544-.2443532.923-.618.116-.282.077 1.055.077-21.382-.0000566-.2651948-.1054506-.5195073-.293-.707-4.8-4.8-3.889-3.888-4.03-4.02-.0867992-.0846108-.1885134-.1524203-.3-.2-.913-.228-.587-.285-5.931 5.06l-6.132-6.133 10.136-10.136 4.843 4.843c.2859943.2859079.7160366.3714219 1.0896546.216678.3736179-.1547439.6172591-.5192821.6173454-.923678v-21c-.0000566-.26519481-.1054506-.51950727-.293-.707zm-35.258 8.842-2.586-2.586 4.136-4.136 2.586 2.586zm-15.45 15.45-2.586-2.586 4.136-4.136 2.586 2.586zm.414 33.414-2-2h18.172l2 2zm15.036-5.964-2.586-2.586 10.136-10.136 2.586 2.586zm15.964 3.964h18.172l2 2h-18.172zm21.586.586-2-2v-18.172l2 2zm-7.843-16.329 3.843-3.843v17.586h-17.586l3.843-3.843c.3903819-.3904999.3903819-1.0235001 0-1.414l-10.843-10.843c-.7809997-.7807639-2.0470003-.7807639-2.828 0l-10.843 10.843c-.3903819.3904999-.3903819 1.0235001 0 1.414l3.843 3.843h-17.586v-17.586l3.843 3.843c.39049985.3903819 1.02350015.3903819 1.414 0l10.843-10.843c.7807639-.7809997.7807639-2.0470003 0-2.828l-10.843-10.843c-.39049985-.3903819-1.02350015-.3903819-1.414 0l-3.843 3.843v-17.586h17.586l-3.843 3.843c-.3903819.39049985-.3903819 1.02350015 0 1.414l10.843 10.843c.7809997.7807639 2.0470003.7807639 2.828 0l10.843-10.843c.3903819-.39049985.3903819-1.02350015 0-1.414l-3.843-3.843h17.586v17.586l-3.843-3.843c-.3904999-.3903819-1.0235001-.3903819-1.414 0l-10.843 10.843c-.7807639.7809997-.7807639 2.0470003 0 2.828l10.843 10.843c.3904999.3903819 1.0235001.3903819 1.414 0zm-8.257-9.671-2.586-2.586 10.136-10.136 2.586 2.586zm16.1-7-2-2v-18.172l2 2z"/></svg>