<?xml version="1.0" encoding="UTF-8"?>
<svg enable-background="new 0 0 489.3 489.3" version="1.1" viewBox="0 0 489.3 489.3" xml:space="preserve" xmlns="http://www.w3.org/2000/svg" xmlns:cc="http://creativecommons.org/ns#" xmlns:dc="http://purl.org/dc/elements/1.1/" xmlns:rdf="http://www.w3.org/1999/02/22-rdf-syntax-ns#"><metadata><rdf:RDF><cc:Work rdf:about=""><dc:format>image/svg+xml</dc:format><dc:type rdf:resource="http://purl.org/dc/dcmitype/StillImage"/><dc:title/></cc:Work></rdf:RDF></metadata><path d="m477 0h-465c-6.8 0-12.2 5.5-12.2 12.2v223c0 6.8 5.5 12.2 12.2 12.2s12.3-5.5 12.3-12.2v-210h440v440h-212c-6.8 0-12.3 5.5-12.3 12.3s5.5 12.3 12.3 12.3h224c6.8 0 12.3-5.5 12.3-12.3v-465c0-6.8-5.5-12.3-12.3-12.3z"/><path d="m0.05 477c0 6.8 5.5 12.3 12.2 12.3h170c6.8 0 12.3-5.5 12.3-12.3v-170c0-6.8-5.5-12.3-12.3-12.3h-170c-6.8 0-12.2 5.5-12.2 12.3v170h-0.1zm24.5-158h146v146h-146v-146z"/><path d="m223 266c2.4 2.4 5.5 3.6 8.7 3.6s6.3-1.2 8.7-3.6l139-139v79.9c0 6.8 5.5 12.3 12.3 12.3s12.3-5.5 12.3-12.3v-109c0-6.8-5.5-12.3-12.3-12.3h-110c-6.8 0-12.3 5.5-12.3 12.3s5.5 12.3 12.3 12.3h79.9l-139 139c-4.8 4.8-4.8 12.5 0 17.3z"/></svg>
