<?xml version="1.0" encoding="UTF-8"?>
<svg enable-background="new 0 0 384.97 384.97" version="1.1" viewBox="0 0 384.97 384.97" xml:space="preserve" xmlns="http://www.w3.org/2000/svg" xmlns:cc="http://creativecommons.org/ns#" xmlns:dc="http://purl.org/dc/elements/1.1/" xmlns:rdf="http://www.w3.org/1999/02/22-rdf-syntax-ns#"><metadata><rdf:RDF><cc:Work rdf:about=""><dc:format>image/svg+xml</dc:format><dc:type rdf:resource="http://purl.org/dc/dcmitype/StillImage"/><dc:title/></cc:Work></rdf:RDF></metadata><g id="Fullscreen_1_"><path d="m372.94 216.54c-6.123 0-12.03 5.269-12.03 12.03v132.33h-336.85v-336.85h132.33c6.388 0 12.03-5.642 12.03-12.03s-6.015-12.031-12.03-12.031h-132.33c-13.294 0-24.061 10.767-24.061 24.061v336.85c0 13.293 10.767 24.061 24.061 24.061h336.85c13.293 0 24.061-10.767 24.061-24.061v-132.51c0-6.664-4.885-11.85-12.031-11.85z"/><path d="m372.94 0h-120.3c-6.641 0-12.03 5.39-12.03 12.03s5.39 12.03 12.03 12.03h91.382l-244.38 244.37c-4.668 4.668-4.668 12.235 0 16.903s12.235 4.668 16.891 0l244.38-244.38v91.382c0 6.641 5.39 12.03 12.03 12.03s12.03-5.39 12.03-12.03v-120.3c1e-3 -6.472-5.557-12.03-12.03-12.03z"/></g></svg>
