<?xml version="1.0" encoding="UTF-8"?>
<svg enable-background="new 0 0 512 512" version="1.1" viewBox="0 0 512 512" xml:space="preserve" xmlns="http://www.w3.org/2000/svg" xmlns:cc="http://creativecommons.org/ns#" xmlns:dc="http://purl.org/dc/elements/1.1/" xmlns:rdf="http://www.w3.org/1999/02/22-rdf-syntax-ns#"><metadata><rdf:RDF><cc:Work rdf:about=""><dc:format>image/svg+xml</dc:format><dc:type rdf:resource="http://purl.org/dc/dcmitype/StillImage"/><dc:title/></cc:Work></rdf:RDF></metadata><path d="m496.33 0h-376.16c-5.77 0-10.449 4.679-10.449 10.449v261.22h-94.041c-5.77 0-10.449 4.679-10.449 10.449v219.43c0 5.77 4.679 10.449 10.449 10.449h219.43c5.77 0 10.449-4.679 10.449-10.449v-104.49h250.78c5.77 0 10.449-4.679 10.449-10.449v-376.16c0-5.77-4.679-10.449-10.449-10.449zm-271.67 491.1h-198.53v-198.53h83.592v94.041c0 5.77 4.679 10.449 10.449 10.449h104.49v94.041zm0-114.94h-94.041v-83.592h94.041v83.592zm261.22 0h-240.33v-94.041c0-5.77-4.679-10.449-10.449-10.449h-104.49v-250.78h355.26v355.26z"/><path d="m433.63 52.245h-94.041c-5.771 0-10.449 4.679-10.449 10.449s4.679 10.449 10.449 10.449h68.815l-109.84 109.84 14.777 14.777 109.84-109.84v68.815c0 5.77 4.679 10.449 10.449 10.449s10.449-4.679 10.449-10.449v-94.041c0-5.771-4.679-10.449-10.449-10.449z"/></svg>
